PathFileType	4	(x/y/z)	S01_PSF_T17.trc
DataRate	CameraRate	NumFrames	NumMarkers	Units	OrigDataRate	OrigDataStartFrame	OrigNumFrames
240	240	10	51	mm	240	273	363
Frame#	Time	Sternum			R.Acromium			L.Acromium			Top.Head			R.ASIS			L.ASIS			R.PSIS			L.PSIS			R.Great.Tro			L.Great.Tro			R.Iliac.Crest			L.Iliac.Crest			V.Sacral			R.Thigh.Upper.Post			R.Thigh.Lower.Ant			R.Thigh.Lower.Post			R.Thigh.Upper.Ant			R.Knee.Lat			R.Knee.Med			R.Shank.Upper.Post			R.Shank.Lower.Ant			R.Shank.Lower.Post			R.Shank.Upper.Ant			R.Ankle.Lat			R.Ankle.Med			R.Heel.Upper			R.Heel.Med			R.Heel.Lat			R.Toe.Lat			R.Toe.Med			R.Toe.Tip			L.Thigh.Upper.Post			L.Thigh.Lower.Ant			L.Thigh.Lower.Post			L.Thigh.Upper.Ant			L.Knee.Lat			L.Knee.Med			L.Shank.Upper.Post			L.Shank.Lower.Ant			L.Shank.Lower.Post			L.Shank.Upper.Ant			L.Ankle.Lat			L.Ankle.Med			L.Heel.Upper			L.Heel.Med			L.Heel.Lat			L.Toe.Lat			L.Toe.Med			L.Toe.Tip			Cervical.Spine			Back			
		X1	Y1	Z1	X2	Y2	Z2	X3	Y3	Z3	X4	Y4	Z4	X5	Y5	Z5	X6	Y6	Z6	X7	Y7	Z7	X8	Y8	Z8	X9	Y9	Z9	X10	Y10	Z10	X11	Y11	Z11	X12	Y12	Z12	X13	Y13	Z13	X14	Y14	Z14	X15	Y15	Z15	X16	Y16	Z16	X17	Y17	Z17	X18	Y18	Z18	X19	Y19	Z19	X20	Y20	Z20	X21	Y21	Z21	X22	Y22	Z22	X23	Y23	Z23	X24	Y24	Z24	X25	Y25	Z25	X26	Y26	Z26	X27	Y27	Z27	X28	Y28	Z28	X29	Y29	Z29	X30	Y30	Z30	X31	Y31	Z31	X32	Y32	Z32	X33	Y33	Z33	X34	Y34	Z34	X35	Y35	Z35	X36	Y36	Z36	X37	Y37	Z37	X38	Y38	Z38	X39	Y39	Z39	X40	Y40	Z40	X41	Y41	Z41	X42	Y42	Z42	X43	Y43	Z43	X44	Y44	Z44	X45	Y45	Z45	X46	Y46	Z46	X47	Y47	Z47	X48	Y48	Z48	X49	Y49	Z49	X50	Y50	Z50	X51	Y51	Z51	

273	1.1333	245.66	1297.3	256.62	125.58	1551.7	423.25	116.66	1558.4	92.909	134.18	1870.6	242.92	190.77	1053.2	415.53	209.41	1049.4	149.85	-40.149	1076.8	307.13	-37.609	1075.5	203.62	113.22	996.48	492.51	112.02	990.7	66.702	94.747	1148.1	471.06	100.31	1125.4	68.133	-51.273	1039.2	252.04	197.07	697.3	496.26	287.41	649.14	489.28	227.88	613.35	485.11	259.32	735.41	498.41	253.11	558.98	489.49	294.11	557.42	341.52	118.72	470.44	480.94	121.18	364.89	446.9	73.824	418.39	464.22	163.39	421.35	470.43	-47.94	262.97	412.77	0.39192	238.42	331.03	-99.889	286.99	335.63	-103.2	254.67	305.58	-123.54	260.08	366.77	-24.608	117.05	459.55	31.27	94.388	351.35	75.669	66.931	419.92	96.646	704.58	97.203	185.8	639.67	103.28	111.65	616.76	118.08	161.98	729.44	80.319	168.03	534.82	115.22	181.57	543.49	255.75	112.04	395.26	96.2	170.34	305.28	126.82	111.35	317.53	101.94	171.79	382.04	117.01	91.766	105.28	141.51	114.9	116.31	239.56	18.812	74.261	186.39	28.688	50.14	221.19	28.622	47.828	158.28	239.49	40.991	128.33	262.94	49.363	250.21	327.15	59.1	199.86	34.637	1610.7	260.23	-53.845	1302.4	276.57
274	1.1375	250.59	1297.9	256.69	130.29	1552.3	423.2	122.17	1559.1	92.835	139.9	1871	243.04	195.51	1054.2	415.16	214.03	1049.8	149.55	-35.397	1077.4	307.31	-32.941	1076	203.8	118.32	997.59	492.55	116.3	990.98	66.734	99.533	1149.1	470.77	105.04	1125.9	67.987	-46.589	1039.7	252.26	204.3	698.73	496.54	295.01	651.31	489.06	235.77	615.06	485.16	266.26	737.35	498.38	261.39	560.71	489.3	302.27	559.72	341.49	128.25	470.02	480.79	132.55	364.49	446.81	84.312	417.15	464.02	173.78	421.7	470.41	-34.721	259.38	412.73	13.947	236.04	330.91	-87.515	282.34	335.78	-90.136	250	305.69	-110.41	254.82	366.96	-7.941	114.04	459.3	48.196	92.847	350.94	93.327	66.353	419.36	98.664	705.2	97.155	187.35	639.62	102.94	113.06	617.26	117.89	164.16	729.58	80.035	168.75	534.84	114.81	182.76	543.34	255.35	112.32	395.35	95.962	170.5	305.28	126.47	111.5	317.62	101.74	172.08	382.01	116.62	91.776	105.3	141.49	114.86	116.37	239.46	18.818	74.286	186.39	28.686	50.186	221.18	28.62	47.857	158.28	239.5	40.96	128.29	262.93	49.37	250.18	327.14	59.087	199.83	39.872	1611.3	259.95	-48.868	1303.1	276.01
275	1.1417	255.53	1298.5	256.75	135.02	1552.8	423.16	127.67	1559.7	92.769	145.63	1871.4	243.19	200.27	1055.1	414.8	218.65	1050.3	149.25	-30.646	1078	307.52	-28.279	1076.6	204.01	123.42	998.64	492.61	120.55	991.21	66.773	104.33	1150	470.5	109.76	1126.4	67.854	-41.907	1040.3	252.5	211.47	700.1	496.8	302.53	653.4	488.82	243.57	616.69	485.17	273.13	739.2	498.32	269.57	562.37	489.08	310.28	561.94	341.44	137.76	469.44	480.65	143.96	363.98	446.69	94.828	415.75	463.85	184.17	421.95	470.37	-21.366	255.62	412.7	27.617	233.52	330.8	-75.004	277.47	335.95	-76.906	245.12	305.82	-97.115	249.35	367.18	8.9317	110.95	459.05	65.302	91.271	350.52	111.16	65.775	418.79	100.7	705.81	97.1	188.92	639.57	102.59	114.49	617.74	117.69	166.36	729.72	79.756	169.49	534.86	114.39	183.95	543.17	254.96	112.62	395.44	95.731	170.66	305.26	126.13	111.66	317.7	101.53	172.39	381.98	116.24	91.787	105.32	141.46	114.81	116.44	239.37	18.828	74.307	186.39	28.693	50.228	221.17	28.617	47.881	158.29	239.5	40.929	128.26	262.93	49.374	250.15	327.14	59.072	199.8	45.107	1611.8	259.69	-43.889	1303.7	275.47
276	1.1458	260.47	1298.9	256.82	139.76	1553.2	423.12	133.15	1560.2	92.71	151.35	1871.8	243.37	205.04	1055.9	414.44	223.27	1050.6	148.96	-25.895	1078.5	307.74	-23.623	1077	204.24	128.53	999.6	492.67	124.79	991.41	66.818	109.15	1150.9	470.25	114.47	1126.8	67.737	-37.227	1040.8	252.76	218.57	701.4	497.03	309.96	655.4	488.54	251.28	618.26	485.16	279.94	740.96	498.23	277.65	563.94	488.82	318.14	564.06	341.37	147.26	468.71	480.52	155.39	363.37	446.56	105.37	414.19	463.69	194.54	422.09	470.29	-7.8727	251.71	412.7	41.406	230.88	330.71	-62.345	272.41	336.14	-63.503	240.05	305.98	-83.639	243.69	367.43	26.001	107.8	458.82	82.579	89.668	350.11	129.16	65.21	418.24	102.77	706.39	97.039	190.51	639.5	102.26	115.95	618.21	117.48	168.58	729.83	79.483	170.24	534.86	113.99	185.16	542.99	254.57	112.93	395.52	95.508	170.84	305.24	125.8	111.83	317.78	101.33	172.72	381.93	115.86	91.799	105.34	141.44	114.75	116.5	239.28	18.843	74.325	186.4	28.709	50.268	221.17	28.615	47.903	158.3	239.51	40.896	128.23	262.92	49.377	250.12	327.13	59.054	199.77	50.343	1612.2	259.44	-38.908	1304.3	274.95
277	1.15	265.41	1299.3	256.89	144.52	1553.6	423.1	138.6	1560.7	92.658	157.07	1872.1	243.57	209.83	1056.6	414.09	227.88	1050.9	148.67	-21.143	1078.9	307.99	-18.97	1077.4	204.49	133.64	1000.5	492.74	129.02	991.56	66.868	113.97	1151.7	470.03	119.18	1127.1	67.637	-32.548	1041.2	253.04	225.61	702.64	497.24	317.3	657.31	488.23	258.9	619.76	485.11	286.7	742.63	498.11	285.64	565.44	488.53	325.86	566.09	341.27	156.75	467.82	480.41	166.86	362.66	446.41	115.95	412.49	463.56	204.9	422.12	470.18	5.7624	247.65	412.7	55.316	228.13	330.63	-49.528	267.14	336.35	-49.919	234.8	306.16	-69.978	237.84	367.69	43.259	104.62	458.61	100.02	88.051	349.73	147.31	64.67	417.71	104.86	706.96	96.972	192.13	639.43	101.94	117.44	618.67	117.27	170.82	729.93	79.216	171.01	534.86	113.59	186.38	542.8	254.2	113.27	395.6	95.295	171.04	305.21	125.47	112.02	317.85	101.14	173.07	381.88	115.49	91.812	105.36	141.43	114.69	116.55	239.2	18.86	74.339	186.41	28.735	50.305	221.16	28.612	47.922	158.31	239.51	40.863	128.2	262.92	49.377	250.09	327.13	59.034	199.74	55.58	1612.6	259.21	-33.925	1304.8	274.46
278	1.1542	270.36	1299.7	256.96	149.29	1553.9	423.08	144.05	1561.1	92.614	162.79	1872.3	243.8	214.63	1057.3	413.75	232.49	1051.1	148.39	-16.387	1079.3	308.25	-14.32	1077.8	204.75	138.76	1001.3	492.82	133.24	991.68	66.922	118.81	1152.3	469.84	123.88	1127.4	67.554	-27.87	1041.6	253.33	232.58	703.79	497.41	324.56	659.12	487.89	266.42	621.17	485.02	293.39	744.2	497.96	293.52	566.85	488.21	333.43	568.03	341.15	166.23	466.78	480.3	178.36	361.85	446.23	126.55	410.65	463.45	215.25	422.06	470.03	19.542	243.47	412.72	69.348	225.26	330.56	-36.544	261.7	336.57	-36.146	229.38	306.36	-56.127	231.83	367.96	60.698	101.41	458.44	117.61	86.427	349.38	165.6	64.167	417.21	106.98	707.52	96.901	193.78	639.35	101.62	118.96	619.12	117.06	173.08	730.01	78.957	171.81	534.86	113.2	187.61	542.59	253.83	113.62	395.67	95.092	171.25	305.18	125.15	112.22	317.93	100.95	173.44	381.82	115.13	91.827	105.38	141.41	114.64	116.61	239.12	18.88	74.349	186.42	28.77	50.34	221.16	28.61	47.94	158.32	239.52	40.828	128.17	262.91	49.375	250.06	327.13	59.012	199.71	60.82	1613	259	-28.941	1305.2	273.99
279	1.1583	275.32	1300	257.02	154.08	1554.1	423.08	149.47	1561.5	92.576	168.5	1872.5	244.06	219.45	1057.8	413.42	237.11	1051.3	148.12	-11.626	1079.6	308.53	-9.6692	1078.1	205.03	143.87	1002	492.91	137.45	991.77	66.982	123.67	1152.9	469.67	128.57	1127.7	67.488	-23.192	1041.9	253.63	239.48	704.87	497.55	331.72	660.84	487.52	273.84	622.51	484.91	300.02	745.68	497.79	301.29	568.18	487.87	340.86	569.86	341	175.71	465.6	480.2	189.89	360.95	446.04	137.19	408.68	463.37	225.59	421.89	469.86	33.467	239.18	412.76	83.504	222.28	330.51	-23.385	256.09	336.81	-22.178	223.79	306.58	-42.078	225.67	368.25	78.308	98.213	458.31	135.35	84.807	349.06	184.01	63.714	416.76	109.14	708.05	96.826	195.46	639.27	101.32	120.51	619.55	116.85	175.37	730.08	78.705	172.64	534.84	112.82	188.85	542.38	253.47	113.99	395.74	94.898	171.47	305.13	124.83	112.43	318	100.77	173.83	381.75	114.78	91.844	105.4	141.4	114.59	116.65	239.04	18.9	74.358	186.44	28.813	50.372	221.17	28.609	47.957	158.34	239.53	40.792	128.13	262.91	49.371	250.03	327.12	58.986	199.68	66.062	1613.2	258.81	-23.954	1305.5	273.54
280	1.1625	280.27	1300.2	257.1	158.89	1554.3	423.08	154.88	1561.8	92.545	174.22	1872.7	244.33	224.28	1058.3	413.12	241.73	1051.4	147.85	-6.8585	1079.9	308.82	-5.0169	1078.4	205.32	148.98	1002.6	493.01	141.66	991.82	67.046	128.53	1153.3	469.54	133.25	1127.8	67.44	-18.512	1042.2	253.94	246.3	705.87	497.65	338.79	662.45	487.12	281.16	623.75	484.75	306.58	747.05	497.59	308.96	569.41	487.49	348.15	571.58	340.83	185.18	464.28	480.11	201.45	359.97	445.83	147.86	406.57	463.3	235.92	421.63	469.65	47.54	234.79	412.81	97.785	219.22	330.47	-10.044	250.32	337.05	-8.0089	218.06	306.83	-27.827	219.38	368.55	96.082	95.031	458.22	153.23	83.202	348.8	202.53	63.322	416.36	111.32	708.57	96.749	197.16	639.17	101.03	122.09	619.97	116.64	177.69	730.12	78.463	173.49	534.82	112.45	190.1	542.16	253.12	114.39	395.8	94.714	171.7	305.09	124.53	112.66	318.07	100.6	174.25	381.68	114.43	91.862	105.43	141.39	114.54	116.7	238.98	18.92	74.364	186.47	28.863	50.403	221.17	28.608	47.974	158.36	239.54	40.755	128.1	262.91	49.364	250	327.12	58.958	199.64	71.309	1613.5	258.63	-18.966	1305.8	273.12
281	1.1667	285.23	1300.3	257.17	163.72	1554.3	423.1	160.28	1562	92.522	179.93	1872.8	244.63	229.13	1058.7	412.83	246.35	1051.4	147.6	-2.0824	1080.1	309.12	-0.36111	1078.6	205.62	154.08	1003.1	493.12	145.88	991.84	67.117	133.41	1153.7	469.43	137.92	1128	67.409	-13.829	1042.5	254.25	253.05	706.79	497.71	345.77	663.95	486.69	288.38	624.91	484.56	313.08	748.33	497.35	316.52	570.56	487.08	355.3	573.19	340.63	194.66	462.83	480.03	213.04	358.91	445.61	158.56	404.35	463.27	246.22	421.28	469.41	61.762	230.31	412.88	112.19	216.06	330.45	3.4861	244.41	337.3	6.3645	212.2	307.1	-13.369	212.98	368.87	114.01	91.885	458.18	171.23	81.623	348.58	221.15	63.004	416.02	113.54	709.06	96.671	198.9	639.06	100.75	123.71	620.37	116.43	180.04	730.14	78.23	174.36	534.8	112.09	191.36	541.93	252.79	114.81	395.87	94.538	171.95	305.03	124.23	112.9	318.13	100.44	174.69	381.6	114.1	91.882	105.45	141.38	114.51	116.73	238.92	18.938	74.37	186.5	28.919	50.432	221.17	28.609	47.992	158.38	239.55	40.717	128.07	262.91	49.354	249.97	327.12	58.928	199.61	76.559	1613.6	258.47	-13.977	1306.1	272.72
282	1.1708	290.2	1300.4	257.24	168.58	1554.4	423.12	165.67	1562.2	92.507	185.63	1872.8	244.94	233.99	1059	412.57	250.98	1051.3	147.36	2.7037	1080.3	309.43	4.3	1078.8	205.92	159.18	1003.5	493.23	150.11	991.83	67.191	138.31	1153.9	469.36	142.58	1128	67.393	-9.1432	1042.7	254.56	259.73	707.63	497.73	352.65	665.34	486.22	295.49	625.97	484.33	319.52	749.5	497.1	323.97	571.61	486.64	362.32	574.69	340.41	204.13	461.24	479.94	224.66	357.77	445.38	169.29	402.01	463.25	256.51	420.84	469.15	76.135	225.75	412.97	126.72	212.84	330.46	17.209	238.37	337.57	20.945	206.23	307.4	1.3004	206.48	369.2	132.09	88.792	458.19	189.35	80.08	348.43	239.86	62.77	415.75	115.79	709.55	96.593	200.68	638.95	100.49	125.37	620.77	116.22	182.42	730.14	78.007	175.27	534.77	111.73	192.64	541.69	252.46	115.25	395.93	94.37	172.22	304.97	123.95	113.16	318.2	100.28	175.15	381.51	113.77	91.904	105.48	141.37	114.5	116.77	238.87	18.953	74.376	186.53	28.979	50.46	221.17	28.61	48.012	158.4	239.56	40.677	128.03	262.91	49.341	249.94	327.11	58.895	199.57	81.815	1613.7	258.33	-8.9857	1306.3	272.35
